<mxfile host="app.diagrams.net" agent="Mozilla/5.0 (X11; Linux x86_64) AppleWebKit/537.36 (KHTML, like Gecko) Chrome/132.0.0.0 Safari/537.36" version="26.0.10">
  <diagram name="Page-1" id="qo4e4QOBGEtct8eYle4K">
    <mxGraphModel dx="2070" dy="1305" grid="1" gridSize="10" guides="1" tooltips="1" connect="1" arrows="1" fold="1" page="1" pageScale="1" pageWidth="1600" pageHeight="1200" math="0" shadow="0">
      <root>
        <mxCell id="0" />
        <mxCell id="1" parent="0" />
        <mxCell id="u5WNyrw37H8Kwxjrm6QB-16" style="edgeStyle=orthogonalEdgeStyle;rounded=0;orthogonalLoop=1;jettySize=auto;html=1;" edge="1" parent="1" source="keZb_xKyQU3Tz1BBdBqd-2">
          <mxGeometry relative="1" as="geometry">
            <mxPoint x="510" y="645" as="targetPoint" />
            <Array as="points">
              <mxPoint x="680" y="643" />
              <mxPoint x="680" y="643" />
            </Array>
          </mxGeometry>
        </mxCell>
        <mxCell id="keZb_xKyQU3Tz1BBdBqd-2" value="&lt;h2&gt;Controller&lt;/h2&gt;" style="rounded=1;whiteSpace=wrap;html=1;verticalAlign=top;" parent="1" vertex="1">
          <mxGeometry x="720" y="500" width="700" height="360" as="geometry" />
        </mxCell>
        <mxCell id="keZb_xKyQU3Tz1BBdBqd-28" value="" style="rounded=1;whiteSpace=wrap;html=1;" parent="1" vertex="1">
          <mxGeometry x="570" y="920" width="400" height="170" as="geometry" />
        </mxCell>
        <mxCell id="keZb_xKyQU3Tz1BBdBqd-29" value="" style="image;sketch=0;aspect=fixed;html=1;points=[];align=center;fontSize=12;image=img/lib/mscae/Docker.svg;" parent="1" vertex="1">
          <mxGeometry x="750" y="520" width="50" height="41" as="geometry" />
        </mxCell>
        <mxCell id="keZb_xKyQU3Tz1BBdBqd-30" value="" style="image;sketch=0;aspect=fixed;html=1;points=[];align=center;fontSize=12;image=img/lib/mscae/Docker.svg;" parent="1" vertex="1">
          <mxGeometry x="590" y="935" width="50" height="41" as="geometry" />
        </mxCell>
        <mxCell id="keZb_xKyQU3Tz1BBdBqd-37" style="edgeStyle=orthogonalEdgeStyle;rounded=0;orthogonalLoop=1;jettySize=auto;html=1;" parent="1" source="keZb_xKyQU3Tz1BBdBqd-31" target="keZb_xKyQU3Tz1BBdBqd-34" edge="1">
          <mxGeometry relative="1" as="geometry">
            <Array as="points">
              <mxPoint x="1275" y="700" />
              <mxPoint x="885" y="700" />
            </Array>
          </mxGeometry>
        </mxCell>
        <mxCell id="u5WNyrw37H8Kwxjrm6QB-1" style="edgeStyle=orthogonalEdgeStyle;rounded=0;orthogonalLoop=1;jettySize=auto;html=1;" edge="1" parent="1" source="keZb_xKyQU3Tz1BBdBqd-31" target="keZb_xKyQU3Tz1BBdBqd-35">
          <mxGeometry relative="1" as="geometry" />
        </mxCell>
        <mxCell id="keZb_xKyQU3Tz1BBdBqd-31" value="Python Process Controller" style="rounded=1;whiteSpace=wrap;html=1;fontSize=20;" parent="1" vertex="1">
          <mxGeometry x="1140" y="540" width="270" height="139" as="geometry" />
        </mxCell>
        <mxCell id="keZb_xKyQU3Tz1BBdBqd-34" value="Process Manager" style="rounded=1;whiteSpace=wrap;html=1;fontSize=20;align=center;" parent="1" vertex="1">
          <mxGeometry x="790" y="730" width="190" height="100" as="geometry" />
        </mxCell>
        <mxCell id="keZb_xKyQU3Tz1BBdBqd-35" value="&lt;div style=&quot;font-size: 20px;&quot;&gt;Process Manager&lt;/div&gt;" style="rounded=1;whiteSpace=wrap;html=1;fontSize=20;" parent="1" vertex="1">
          <mxGeometry x="1160" y="740" width="190" height="100" as="geometry" />
        </mxCell>
        <mxCell id="keZb_xKyQU3Tz1BBdBqd-39" style="edgeStyle=orthogonalEdgeStyle;rounded=0;orthogonalLoop=1;jettySize=auto;html=1;exitX=0.25;exitY=1;exitDx=0;exitDy=0;entryX=0.468;entryY=-0.012;entryDx=0;entryDy=0;entryPerimeter=0;" parent="1" source="keZb_xKyQU3Tz1BBdBqd-34" target="keZb_xKyQU3Tz1BBdBqd-28" edge="1">
          <mxGeometry relative="1" as="geometry" />
        </mxCell>
        <mxCell id="keZb_xKyQU3Tz1BBdBqd-40" value="Starts&amp;nbsp;&lt;div&gt;Container&lt;/div&gt;" style="text;html=1;align=center;verticalAlign=middle;resizable=0;points=[];autosize=1;strokeColor=none;fillColor=none;" parent="1" vertex="1">
          <mxGeometry x="800" y="878" width="80" height="40" as="geometry" />
        </mxCell>
        <mxCell id="u5WNyrw37H8Kwxjrm6QB-2" style="edgeStyle=orthogonalEdgeStyle;rounded=0;orthogonalLoop=1;jettySize=auto;html=1;entryX=1;entryY=0.5;entryDx=0;entryDy=0;" edge="1" parent="1" source="keZb_xKyQU3Tz1BBdBqd-41" target="keZb_xKyQU3Tz1BBdBqd-34">
          <mxGeometry relative="1" as="geometry">
            <Array as="points">
              <mxPoint x="1000" y="780" />
            </Array>
          </mxGeometry>
        </mxCell>
        <mxCell id="keZb_xKyQU3Tz1BBdBqd-41" value="Modified srsUE" style="rounded=1;whiteSpace=wrap;html=1;fontSize=20;" parent="1" vertex="1">
          <mxGeometry x="720" y="945" width="230" height="130" as="geometry" />
        </mxCell>
        <mxCell id="keZb_xKyQU3Tz1BBdBqd-43" style="edgeStyle=orthogonalEdgeStyle;rounded=0;orthogonalLoop=1;jettySize=auto;html=1;entryX=0;entryY=0.5;entryDx=0;entryDy=0;" parent="1" source="keZb_xKyQU3Tz1BBdBqd-42" target="keZb_xKyQU3Tz1BBdBqd-41" edge="1">
          <mxGeometry relative="1" as="geometry" />
        </mxCell>
        <mxCell id="keZb_xKyQU3Tz1BBdBqd-42" value=".conf" style="whiteSpace=wrap;html=1;shape=mxgraph.basic.document" parent="1" vertex="1">
          <mxGeometry x="610" y="995" width="40" height="60" as="geometry" />
        </mxCell>
        <mxCell id="u5WNyrw37H8Kwxjrm6QB-3" value="Logs" style="text;html=1;align=center;verticalAlign=middle;resizable=0;points=[];autosize=1;strokeColor=none;fillColor=none;" vertex="1" parent="1">
          <mxGeometry x="1005" y="878" width="50" height="30" as="geometry" />
        </mxCell>
        <mxCell id="u5WNyrw37H8Kwxjrm6QB-20" style="edgeStyle=orthogonalEdgeStyle;rounded=0;orthogonalLoop=1;jettySize=auto;html=1;" edge="1" parent="1" source="u5WNyrw37H8Kwxjrm6QB-4">
          <mxGeometry relative="1" as="geometry">
            <mxPoint x="410" y="850" as="targetPoint" />
            <Array as="points">
              <mxPoint x="1243" y="1120" />
              <mxPoint x="410" y="1120" />
            </Array>
          </mxGeometry>
        </mxCell>
        <mxCell id="u5WNyrw37H8Kwxjrm6QB-4" value="" style="rounded=1;whiteSpace=wrap;html=1;" vertex="1" parent="1">
          <mxGeometry x="1055" y="925" width="375" height="170" as="geometry" />
        </mxCell>
        <mxCell id="u5WNyrw37H8Kwxjrm6QB-5" value="" style="image;sketch=0;aspect=fixed;html=1;points=[];align=center;fontSize=12;image=img/lib/mscae/Docker.svg;" vertex="1" parent="1">
          <mxGeometry x="1070" y="945" width="50" height="41" as="geometry" />
        </mxCell>
        <mxCell id="u5WNyrw37H8Kwxjrm6QB-6" value="Jammer" style="rounded=1;whiteSpace=wrap;html=1;fontSize=20;" vertex="1" parent="1">
          <mxGeometry x="1160" y="945" width="240" height="125" as="geometry" />
        </mxCell>
        <mxCell id="u5WNyrw37H8Kwxjrm6QB-8" style="edgeStyle=orthogonalEdgeStyle;rounded=0;orthogonalLoop=1;jettySize=auto;html=1;entryX=0;entryY=0.5;entryDx=0;entryDy=0;" edge="1" parent="1" source="u5WNyrw37H8Kwxjrm6QB-7" target="u5WNyrw37H8Kwxjrm6QB-6">
          <mxGeometry relative="1" as="geometry" />
        </mxCell>
        <mxCell id="u5WNyrw37H8Kwxjrm6QB-7" value=".yaml" style="whiteSpace=wrap;html=1;shape=mxgraph.basic.document" vertex="1" parent="1">
          <mxGeometry x="1070" y="1010" width="40" height="60" as="geometry" />
        </mxCell>
        <mxCell id="u5WNyrw37H8Kwxjrm6QB-9" style="edgeStyle=orthogonalEdgeStyle;rounded=0;orthogonalLoop=1;jettySize=auto;html=1;entryX=0.448;entryY=0;entryDx=0;entryDy=0;entryPerimeter=0;" edge="1" parent="1" source="keZb_xKyQU3Tz1BBdBqd-35" target="u5WNyrw37H8Kwxjrm6QB-4">
          <mxGeometry relative="1" as="geometry" />
        </mxCell>
        <mxCell id="u5WNyrw37H8Kwxjrm6QB-10" value="Starts&amp;nbsp;&lt;div&gt;Container&lt;/div&gt;" style="text;html=1;align=center;verticalAlign=middle;resizable=0;points=[];autosize=1;strokeColor=none;fillColor=none;" vertex="1" parent="1">
          <mxGeometry x="1230" y="885" width="80" height="40" as="geometry" />
        </mxCell>
        <mxCell id="u5WNyrw37H8Kwxjrm6QB-11" style="edgeStyle=orthogonalEdgeStyle;rounded=0;orthogonalLoop=1;jettySize=auto;html=1;" edge="1" parent="1" target="keZb_xKyQU3Tz1BBdBqd-35">
          <mxGeometry relative="1" as="geometry">
            <mxPoint x="1400" y="1013" as="sourcePoint" />
            <mxPoint x="1430" y="783" as="targetPoint" />
            <Array as="points">
              <mxPoint x="1450" y="1013" />
              <mxPoint x="1450" y="783" />
            </Array>
          </mxGeometry>
        </mxCell>
        <mxCell id="u5WNyrw37H8Kwxjrm6QB-12" value="Logs" style="text;html=1;align=center;verticalAlign=middle;resizable=0;points=[];autosize=1;strokeColor=none;fillColor=none;" vertex="1" parent="1">
          <mxGeometry x="1380" y="870" width="50" height="30" as="geometry" />
        </mxCell>
        <mxCell id="u5WNyrw37H8Kwxjrm6QB-14" style="edgeStyle=orthogonalEdgeStyle;rounded=0;orthogonalLoop=1;jettySize=auto;html=1;entryX=0;entryY=0.5;entryDx=0;entryDy=0;" edge="1" parent="1" source="u5WNyrw37H8Kwxjrm6QB-13" target="keZb_xKyQU3Tz1BBdBqd-31">
          <mxGeometry relative="1" as="geometry" />
        </mxCell>
        <mxCell id="u5WNyrw37H8Kwxjrm6QB-13" value=".yaml" style="whiteSpace=wrap;html=1;shape=mxgraph.basic.document;fontSize=16;" vertex="1" parent="1">
          <mxGeometry x="1000" y="610" width="60" height="80" as="geometry" />
        </mxCell>
        <mxCell id="u5WNyrw37H8Kwxjrm6QB-17" value="Logs" style="text;html=1;align=center;verticalAlign=middle;resizable=0;points=[];autosize=1;strokeColor=none;fillColor=none;" vertex="1" parent="1">
          <mxGeometry x="640" y="610" width="50" height="30" as="geometry" />
        </mxCell>
        <mxCell id="u5WNyrw37H8Kwxjrm6QB-19" value="Metrics" style="text;html=1;align=center;verticalAlign=middle;resizable=0;points=[];autosize=1;strokeColor=none;fillColor=none;" vertex="1" parent="1">
          <mxGeometry x="430" y="908" width="60" height="30" as="geometry" />
        </mxCell>
        <mxCell id="u5WNyrw37H8Kwxjrm6QB-23" value="Grafana" style="rounded=1;whiteSpace=wrap;html=1;verticalAlign=top;fontSize=20;" vertex="1" parent="1">
          <mxGeometry x="365" y="290" width="425" height="160" as="geometry" />
        </mxCell>
        <mxCell id="u5WNyrw37H8Kwxjrm6QB-24" value="" style="image;sketch=0;aspect=fixed;html=1;points=[];align=center;fontSize=12;image=img/lib/mscae/Docker.svg;" vertex="1" parent="1">
          <mxGeometry x="395" y="310" width="50" height="41" as="geometry" />
        </mxCell>
        <mxCell id="u5WNyrw37H8Kwxjrm6QB-26" value="&lt;ul&gt;&lt;li&gt;SINR&lt;/li&gt;&lt;li&gt;MCS&lt;/li&gt;&lt;li&gt;bitrate&lt;/li&gt;&lt;li&gt;CQI&lt;/li&gt;&lt;li&gt;rrc state&lt;/li&gt;&lt;li&gt;etc.&lt;/li&gt;&lt;/ul&gt;" style="text;strokeColor=none;fillColor=none;html=1;whiteSpace=wrap;verticalAlign=middle;overflow=hidden;fontSize=16;" vertex="1" parent="1">
          <mxGeometry x="640" y="290" width="215" height="140" as="geometry" />
        </mxCell>
        <mxCell id="u5WNyrw37H8Kwxjrm6QB-28" style="edgeStyle=orthogonalEdgeStyle;rounded=0;orthogonalLoop=1;jettySize=auto;html=1;entryX=0.167;entryY=0.994;entryDx=0;entryDy=0;entryPerimeter=0;" edge="1" parent="1" source="keZb_xKyQU3Tz1BBdBqd-28" target="keZb_xKyQU3Tz1BBdBqd-3">
          <mxGeometry relative="1" as="geometry">
            <Array as="points">
              <mxPoint x="410" y="1010" />
            </Array>
          </mxGeometry>
        </mxCell>
        <mxCell id="u5WNyrw37H8Kwxjrm6QB-29" style="edgeStyle=orthogonalEdgeStyle;rounded=0;orthogonalLoop=1;jettySize=auto;html=1;entryX=0.292;entryY=0.975;entryDx=0;entryDy=0;entryPerimeter=0;" edge="1" parent="1" source="keZb_xKyQU3Tz1BBdBqd-3" target="u5WNyrw37H8Kwxjrm6QB-23">
          <mxGeometry relative="1" as="geometry" />
        </mxCell>
        <mxCell id="keZb_xKyQU3Tz1BBdBqd-3" value="&lt;h2&gt;&lt;font&gt;InfluxDB&lt;/font&gt;&lt;/h2&gt;" style="rounded=1;whiteSpace=wrap;html=1;horizontal=1;verticalAlign=top;fontSize=16;fontFamily=Helvetica;" parent="1" vertex="1">
          <mxGeometry x="370" y="495" width="240" height="350" as="geometry" />
        </mxCell>
        <mxCell id="keZb_xKyQU3Tz1BBdBqd-4" value="" style="image;sketch=0;aspect=fixed;html=1;points=[];align=center;fontSize=12;image=img/lib/mscae/Docker.svg;" parent="1" vertex="1">
          <mxGeometry x="395" y="565" width="50" height="41" as="geometry" />
        </mxCell>
        <mxCell id="u5WNyrw37H8Kwxjrm6QB-31" value="&lt;ul&gt;&lt;li&gt;Persistent metrics storage&lt;/li&gt;&lt;li&gt;Regular backups&lt;/li&gt;&lt;li&gt;Timeseries data&lt;/li&gt;&lt;/ul&gt;" style="text;strokeColor=none;fillColor=none;html=1;whiteSpace=wrap;verticalAlign=middle;overflow=hidden;fontSize=16;" vertex="1" parent="1">
          <mxGeometry x="390" y="620" width="160" height="177.5" as="geometry" />
        </mxCell>
      </root>
    </mxGraphModel>
  </diagram>
</mxfile>
